# AST/ASF file generated using VICON BodyLanguage
# -----------------------------------------------
:version 1.10
:name VICON
:units
  mass 1.0
  length 0.45
  angle deg
:documentation
   .ast/.asf automatically generated from VICON data using
   VICON BodyBuilder and BodyLanguage model FoxedUp or BRILLIANT.MOD
:root
   order TX TY TZ RX RY RZ
   axis XYZ
   position 0 0 0  
   orientation 0 0 0 
:bonedata
  begin
     id 1 
     name lhipjoint
     direction 0.541323 -0.757556 0.364798 
     length 2.47576 
     axis 0 0 0  XYZ
  end
  begin
     id 2 
     name lfemur
     direction 0.34202 -0.939693 0  
     length 7.46493  
     axis 0 0 20  XYZ
    dof rx ry rz
    limits (-160.0 20.0)
           (-70.0 70.0)
           (-60.0 70.0)
  end
  begin
     id 3 
     name ltibia
     direction 0.34202 -0.939693 0   
     length 7.73805   
     axis 0 0 20   XYZ
    dof rx
    limits (-10.0 170.0)
  end
  begin
     id 4 
     name lfoot
     direction 0.107174 -0.294458 0.949636   
     length 2.25864   
     axis -90 7.62852e-016 20   XYZ
    dof rx rz
    limits (-45.0 90.0)
           (-70.0 20.0)
  end
  begin
     id 5 
     name ltoes
     direction 1.53606e-011 -4.21934e-011 1   
     length 1.12451   
     axis -90 7.62852e-016 20   XYZ
    dof rx
    limits (-90.0 20.0)
  end
  begin
     id 6 
     name rhipjoint
     direction -0.524745 -0.766967 0.36933   
     length 2.44538  
     axis 0 0 0  XYZ 
  end
  begin
     id 7 
     name rfemur
     direction -0.34202 -0.939693 0   
     length 7.61604   
     axis 0 0 -20   XYZ
    dof rx ry rz
    limits (-160.0 20.0)
           (-70.0 70.0)
           (-70.0 60.0)
  end
  begin
     id 8 
     name rtibia
     direction -0.34202 -0.939693 0   
     length 7.61056   
     axis 0 0 -20   XYZ
    dof rx
    limits (-10.0 170.0)
 end
 begin
     id 9 
     name rfoot
     direction -0.12616 -0.346623 0.929482   
     length 2.46372  
     axis -90 -7.62852e-016 -20   XYZ
    dof rx rz
    limits (-45.0 90.0)
           (-20.0 70.0)
  end
  begin
     id 10 
     name rtoes
     direction -1.53531e-011 -4.22004e-011 1   
     length 1.21611   
     axis -90 -7.62852e-016 -20   XYZ
    dof rx
    limits (-90.0 20.0)
  end
  begin
     id 11 
     name lowerback
     direction -0.000778023 0.997293 -0.0735223   
     length 2.06139   
     axis 0 0 0   XYZ
    dof rx ry rz
    limits (-20.0 45.0)
           (-30.0 30.0)
           (-30.0 30.0)
  end
  begin
     id 12 
     name upperback
     direction 0.0222598 0.999722 -0.0078355   
     length 2.06383   
     axis 0 0 0   XYZ
    dof rx ry rz
    limits (-20.0 45.0)
           (-30.0 30.0)
           (-30.0 30.0)
  end
  begin
     id 13 
     name thorax
     direction 0.0219654 0.999405 0.0265994   
     length 2.07163   
     axis 0 0 0   XYZ
    dof rx ry rz
    limits (-20.0 45.0)
           (-30.0 30.0)
           (-30.0 30.0)
  end
  begin
     id 14 
     name lowerneck
     direction 0.0213282 0.988147 0.15202   
     length 1.75969   
     axis 0 0 0   XYZ
    dof rx ry rz
    limits (-20.0 45.0)
           (-30.0 30.0)
           (-30.0 30.0)
  end
  begin
     id 15 
     name upperneck
     direction -0.0546456 0.982624 -0.177379   
     length 1.79244   
     axis 0 0 0   XYZ
    dof rx ry rz
    limits (-20.0 45.0)
           (-30.0 30.0)
           (-30.0 30.0)
  end
  begin
     id 16
     name head
     direction -0.0199987 0.996855 -0.076686  
     length 1.80555  
     axis 0 0 0   XYZ
    dof rx ry rz
    limits (-20.0 45.0)
           (-30.0 30.0)
           (-30.0 30.0)
  end
  begin
     id 17 
     name lclavicle
     direction 0.929565 0.363219 -0.063096  
     length 3.55722  
     axis 0 0 0   XYZ
    dof ry rz
    limits (-20.0 10.0)
           (0.0 20.0)
  end
  begin
     id 18 
     name lhumerus
     direction 1 -4.48993e-011 -2.36203e-027   
     length 4.92785   
     axis 180 -30 -90   XYZ
    dof rx ry rz
    limits (-60.0 90.0)
           (-90.0 90.0)
           (-90.0 90.0)
  end
  begin
     id 19
     name lradius
     direction 1 -4.48947e-011 2.02997e-027   
     length 3.44052   
     axis 180 -30 -90   XYZ
    dof rx
    limits (-10.0 170.0)
  end
  begin
     id 20
     name lwrist
     direction 1 -4.48962e-011 1.45991e-027   
     length 1.72026   
     axis 1.49639e-024 90 90   XYZ
    dof ry
    limits (-180.0 0.0)
 end
  begin
     id 21 
     name lhand
     direction 1 -4.48984e-011 2.91906e-027   
     length 0.654326   
     axis -1.863e-015 90 90   XYZ
    dof rx rz
    limits (-90.0 90.0)
           (-45.0 45.0)
  end
  begin
     id 22 
     name lfingers
     direction 1 -4.48961e-011 5.83968e-027   
     length 0.527534   
     axis -3.72598e-015 90 90   XYZ
    dof rx
    limits (0.0 90.0)
  end
  begin
     id 23
     name lthumb
     direction 0.707107 -6.34963e-011 0.707107   
     length 0.757437   
     axis -90 45 -6.68868e-015   XYZ
    dof rx rz
    limits (-45.0 45.0)
           (-45.0 45.0)
  end
  begin
     id 24 
     name rclavicle
     direction -0.902944 0.422599 -0.0781198   
     length 3.54432  
     axis 0 0 0   XYZ 
    dof ry rz
    limits (-10.0 20.0)
           (-20.0 0.0)
  end
  begin
     id 25 
     name rhumerus
     direction -1 -4.48953e-011 -4.75835e-028  
     length 5.09181   
     axis 180 30 90   XYZ
    dof rx ry rz
    limits (-90.0 60.0)
           (-90.0 90.0)
           (-90.0 90.0)
  end
  begin
     id 26 
     name rradius
     direction -1 -4.48986e-011 -3.25889e-027   
     length 3.49865   
     axis 180 30 90   XYZ
    dof rx
    limits (-10.0 170.0)
  end
  begin
     id 27 
     name rwrist
     direction -1 -4.48963e-011 1.45989e-027   
     length 1.74933   
     axis 1.49639e-024 -90 -90   XYZ
    dof ry
    limits (-180.0 0.0)
  end
  begin
     id 28
     name rhand
     direction -1 -4.49003e-011 2.91844e-027   
     length 0.66641   
     axis -1.863e-015 -90 -90   XYZ
    dof rx rz
    limits (-90.0 90.0)
           (-45.0 45.0)
  end
  begin
     id 29
     name rfingers
     direction -1 -4.48973e-011 5.83886e-027   
     length 0.537277   
     axis -3.72598e-015 -90 -90   XYZ
    dof rx
    limits (0.0 90.0)
  end
  begin
     id 30
     name rthumb
     direction -0.707107 -6.34976e-011 0.707107   
     length 0.771425   
     axis -90 -45 6.68868e-015   XYZ
    dof rx rz
    limits (-45.0 45.0)
           (-45.0 45.0)
  end
:hierarchy
  begin
    root lhipjoint rhipjoint lowerback
    lhipjoint lfemur
    lfemur ltibia
    ltibia lfoot
    lfoot ltoes
    rhipjoint rfemur
    rfemur rtibia
    rtibia rfoot
    rfoot rtoes
    lowerback upperback
    upperback thorax
    thorax lowerneck lclavicle rclavicle
    lowerneck upperneck
    upperneck head
    lclavicle lhumerus
    lhumerus lradius
    lradius lwrist
    lwrist lhand lthumb
    lhand lfingers
    rclavicle rhumerus
    rhumerus rradius
    rradius rwrist
    rwrist rhand rthumb
    rhand rfingers
  end

#!OML:ASF H:\LiuWeirdWalks\Patient Classification 1\Patient 1\Session 1\male.ASF
:FULLY-SPECIFIED
:DEGREES
50
root -0.0332903 18.0062 -30.4464 2.43161 28.8382 -1.72473
lowerback 1.0548 5.78571 1.09687
upperback -0.485182 7.7832 2.98077
thorax -1.35593 3.90277 2.2595
lowerneck 1.51809 21.6519 9.82854
upperneck 7.49294 30.0243 -9.83434
head 4.9447 14.8897 -2.47694
rclavicle -7.81969e-014 -3.18055e-015
rhumerus -38.53 -20.3906 -64.0996
rradius 24.4096
rwrist -5.29094
rhand -22.0416 1.09878
rfingers 7.12502
rthumb 4.36862 -28.8362
lclavicle -7.81969e-014 -3.18055e-015
lhumerus -30.9589 20.888 79.5357
lradius 23.2636
lwrist 8.16079
lhand -17.511 -7.97795
lfingers 7.12502
lthumb 8.74228 21.821
rfemur -2.56853 -12.1768 22.4383
rtibia 23.5126
rfoot -16.7442 -40.7145
rtoes 3.76509
lfemur -11.4928 -8.24044 -12.7796
ltibia 24.362
lfoot -11.4922 0.445398
ltoes -11.2304
51
root -0.0264409 18.0076 -30.451 2.40819 28.7409 -1.78705
lowerback 1.05792 5.7396 1.13397
upperback -0.458225 7.72205 3.01675
thorax -1.32801 3.87213 2.27904
lowerneck 1.49872 21.6743 9.70793
upperneck 7.41062 30.039 -9.80393
head 4.90148 14.8968 -2.46218
rclavicle 5.94118e-014 -4.77083e-015
rhumerus -38.4241 -20.1416 -64.2409
rradius 24.7262
rwrist -5.60928
rhand -22.063 1.1013
rfingers 7.12502
rthumb 4.3479 -28.8341
lclavicle 5.94118e-014 -4.77083e-015
lhumerus -30.8759 20.7577 79.7086
lradius 23.1382
lwrist 7.94971
lhand -17.4293 -7.93861
lfingers 7.12502
lthumb 8.82106 21.857
rfemur -2.55769 -12.0575 22.4793
rtibia 23.4586
rfoot -16.6783 -40.7397
rtoes 3.75856
lfemur -11.494 -8.23003 -12.7477
ltibia 24.3828
lfoot -11.4687 0.516053
ltoes -11.2488
52
root -0.0189927 18.0094 -30.4552 2.38633 28.6369 -1.84426
lowerback 1.05009 5.68743 1.16634
upperback -0.422228 7.65228 3.06313
thorax -1.28645 3.83733 2.31366
lowerneck 1.51105 21.7049 9.60402
upperneck 7.33758 30.0678 -9.7706
head 4.85953 14.9123 -2.44943
rclavicle 8.20981e-014 3.10104e-014
rhumerus -38.2916 -19.8746 -64.3735
rradius 25.0238
rwrist -5.93695
rhand -22.0681 1.17197
rfingers 7.12502
rthumb 4.34302 -28.7635
lclavicle 8.20981e-014 3.10104e-014
lhumerus -30.7787 20.7629 79.848
lradius 22.9702
lwrist 7.66061
lhand -17.3343 -7.91472
lfingers 7.12502
lthumb 8.91273 21.877
rfemur -2.53784 -11.9394 22.5112
rtibia 23.3948
rfoot -16.6207 -40.7517
rtoes 3.76634
lfemur -11.4889 -8.2272 -12.7255
ltibia 24.4058
lfoot -11.4465 0.612898
ltoes -11.2811
53
root -0.0116962 18.0114 -30.4592 2.36409 28.5296 -1.90885
lowerback 1.03321 5.64624 1.20733
upperback -0.38786 7.5969 3.10433
thorax -1.24016 3.80962 2.33884
lowerneck 1.50908 21.724 9.54155
upperneck 7.31092 30.0844 -9.73188
head 4.83814 14.9211 -2.43524
rclavicle -4.55465e-014 -7.95139e-016
rhumerus -38.1724 -19.6469 -64.4886
rradius 25.3034
rwrist -6.24128
rhand -22.0591 1.30113
rfingers 7.12502
rthumb 4.35167 -28.6342
lclavicle -4.55465e-014 -7.95139e-016
lhumerus -30.6607 20.7921 79.9706
lradius 22.7807
lwrist 7.35628
lhand -17.2596 -7.8634
lfingers 7.12502
lthumb 8.98486 21.9253
rfemur -2.52058 -11.8052 22.5541
rtibia 23.3297
rfoot -16.569 -40.7739
rtoes 3.7792
lfemur -11.482 -8.21285 -12.6953
ltibia 24.4226
lfoot -11.4293 0.705176
ltoes -11.3268
54
root -0.00442911 18.0136 -30.4632 2.35677 28.42 -1.95415
lowerback 1.01414 5.63138 1.24884
upperback -0.369923 7.57645 3.11318
thorax -1.20624 3.7991 2.3292
lowerneck 1.63182 21.6998 9.68403
upperneck 7.23222 30.0613 -9.82714
head 4.82772 14.9156 -2.4903
rclavicle -1.29707e-014 1.59028e-014
rhumerus -38.1234 -19.4998 -64.5807
rradius 25.5797
rwrist -6.51597
rhand -22.0388 1.46556
rfingers 7.12502
rthumb 4.37134 -28.4693
lclavicle -1.29707e-014 1.59028e-014
lhumerus -30.5176 20.8121 80.0551
lradius 22.5469
lwrist 6.97742
lhand -17.1759 -7.83033
lfingers 7.12502
lthumb 9.06565 21.9549
rfemur -2.51224 -11.673 22.5781
rtibia 23.2724
rfoot -16.5338 -40.7877
rtoes 3.80414
lfemur -11.4725 -8.17845 -12.6834
ltibia 24.4242
lfoot -11.4074 0.782737
ltoes -11.3736
55
root 0.00260851 18.0161 -30.4673 2.36236 28.3145 -1.97655
lowerback 0.999881 5.63888 1.28529
upperback -0.368696 7.58582 3.09027
thorax -1.1895 3.80324 2.28775
lowerneck 1.67057 21.6538 9.87024
upperneck 7.29851 30.0124 -9.86647
head 4.87035 14.8933 -2.51929
rclavicle -7.11401e-014 -1.59028e-015
rhumerus -38.1491 -19.4184 -64.6596
rradius 25.8643
rwrist -6.75441
rhand -22.0266 1.62866
rfingers 7.12502
rthumb 4.38309 -28.306
lclavicle -7.11401e-014 -1.59028e-015
lhumerus -30.3538 20.8074 80.1117
lradius 22.2863
lwrist 6.55676
lhand -17.0434 -7.82182
lfingers 7.12502
lthumb 9.19343 21.9578
rfemur -2.50901 -11.544 22.5805
rtibia 23.2267
rfoot -16.5361 -40.7921
rtoes 3.84236
lfemur -11.4574 -8.11298 -12.6922
ltibia 24.4087
lfoot -11.3898 0.821127
ltoes -11.4136
56
root 0.0100021 18.0188 -30.4714 2.38476 28.2068 -1.97196
lowerback 0.98511 5.65818 1.31578
upperback -0.378377 7.61072 3.04292
thorax -1.18158 3.81497 2.22375
lowerneck 1.68487 21.6042 10.064
upperneck 7.38417 29.9574 -9.89213
head 4.92104 14.8671 -2.54238
rclavicle -3.60049e-014 -9.54166e-015
rhumerus -38.2121 -19.3652 -64.7411
rradius 26.1478
rwrist -6.95629
rhand -22.0323 1.74043
rfingers 7.12502
rthumb 4.37754 -28.1943
lclavicle -3.60049e-014 -9.54166e-015
lhumerus -30.1829 20.7802 80.1516
lradius 22.0251
lwrist 6.12447
lhand -16.9363 -7.78585
lfingers 7.12502
lthumb 9.2968 21.9892
rfemur -2.51539 -11.4313 22.5509
rtibia 23.1964
rfoot -16.5608 -40.7701
rtoes 3.89112
lfemur -11.4353 -8.05326 -12.7288
ltibia 24.3752
lfoot -11.3626 0.86119
ltoes -11.4322
57
root 0.0173486 18.0216 -30.4756 2.41389 28.0924 -1.95855
lowerback 0.935855 5.58115 1.26751
upperback -0.284989 7.50341 3.10315
thorax -1.06905 3.76215 2.32473
lowerneck 1.43617 21.7051 9.8262
upperneck 7.45856 30.0803 -9.85374
head 4.95445 14.9129 -2.46668
rclavicle -3.26504e-014 7.95139e-016
rhumerus -37.8997 -19.0321 -64.9159
rradius 26.3601
rwrist -7.13912
rhand -22.0595 1.77146
rfingers 7.12502
rthumb 4.35133 -28.1638
lclavicle -3.26504e-014 7.95139e-016
lhumerus -29.9425 21.1445 80.2533
lradius 21.8189
lwrist 5.7008
lhand -16.8449 -7.71481
lfingers 7.12502
lthumb 9.38502 22.0563
rfemur -2.52883 -11.3169 22.5118
rtibia 23.1757
rfoot -16.6124 -40.7364
rtoes 3.95155
lfemur -11.4062 -8.03749 -12.7742
ltibia 24.3301
lfoot -11.3296 0.941118
ltoes -11.4596
58
root 0.0248312 18.0243 -30.4797 2.44288 27.9654 -1.94654
lowerback 0.894368 5.52096 1.22349
upperback -0.212509 7.41957 3.15695
thorax -0.981385 3.72087 2.41405
lowerneck 1.1599 21.8021 9.53692
upperneck 7.57977 30.1924 -9.73145
head 4.98489 14.9531 -2.36268
rclavicle -8.17502e-014 1.82882e-014
rhumerus -37.6403 -18.709 -65.0692
rradius 26.5662
rwrist -7.32224
rhand -22.0959 1.76451
rfingers 7.12502
rthumb 4.31612 -28.1715
lclavicle -8.17502e-014 1.82882e-014
lhumerus -29.7324 21.4126 80.3745
lradius 21.6513
lwrist 5.34476
lhand -16.7767 -7.58503
lfingers 7.12502
lthumb 9.45078 22.1831
rfemur -2.54605 -11.1957 22.4724
rtibia 23.1588
rfoot -16.6631 -40.6954
rtoes 4.00264
lfemur -11.3712 -8.06445 -12.8191
ltibia 24.2811
lfoot -11.284 1.06928
ltoes -11.4685
